<?xml version="1.0" encoding="UTF-8" standalone="no"?>
<!DOCTYPE svg PUBLIC "-//W3C//DTD SVG 1.1//EN"
 "http://www.w3.org/Graphics/SVG/1.1/DTD/svg11.dtd">
<!-- Generated by graphviz version 2.42.4 (0)
 -->
<!-- Title: PipelineComponents Pages: 1 -->
<svg width="2170pt" height="994pt"
 viewBox="0.00 0.00 2170.00 994.00" xmlns="http://www.w3.org/2000/svg" xmlns:xlink="http://www.w3.org/1999/xlink">
<g id="graph0" class="graph" transform="scale(1 1) rotate(0) translate(4 990)">
<title>PipelineComponents</title>
<polygon fill="white" stroke="transparent" points="-4,4 -4,-990 2166,-990 2166,4 -4,4"/>
<text text-anchor="middle" x="1081" y="-972.4" font-family="Helvetica,sans-Serif" font-size="12.00">Hippocampus Pipeline &#45; High&#45;Level Component Diagram</text>
<g id="clust1" class="cluster">
<title>cluster_entry</title>
<path fill="none" stroke="#9ca3af" d="M20,-397C20,-397 197,-397 197,-397 203,-397 209,-403 209,-409 209,-409 209,-530 209,-530 209,-536 203,-542 197,-542 197,-542 20,-542 20,-542 14,-542 8,-536 8,-530 8,-530 8,-409 8,-409 8,-403 14,-397 20,-397"/>
<text text-anchor="middle" x="108.5" y="-528.4" font-family="Helvetica,sans-Serif" font-size="12.00">Main Entry Points</text>
</g>
<g id="clust2" class="cluster">
<title>cluster_wrapper</title>
<path fill="none" stroke="#9ca3af" d="M303,-195C303,-195 582,-195 582,-195 588,-195 594,-201 594,-207 594,-207 594,-400 594,-400 594,-406 588,-412 582,-412 582,-412 303,-412 303,-412 297,-412 291,-406 291,-400 291,-400 291,-207 291,-207 291,-201 297,-195 303,-195"/>
<text text-anchor="middle" x="442.5" y="-398.4" font-family="Helvetica,sans-Serif" font-size="12.00">Wrapper Layer</text>
</g>
<g id="clust3" class="cluster">
<title>cluster_config</title>
<path fill="none" stroke="#9ca3af" d="M341,-740C341,-740 544,-740 544,-740 550,-740 556,-746 556,-752 556,-752 556,-945 556,-945 556,-951 550,-957 544,-957 544,-957 341,-957 341,-957 335,-957 329,-951 329,-945 329,-945 329,-752 329,-752 329,-746 335,-740 341,-740"/>
<text text-anchor="middle" x="442.5" y="-943.4" font-family="Helvetica,sans-Serif" font-size="12.00">Configuration</text>
</g>
<g id="clust4" class="cluster">
<title>cluster_runtime</title>
<path fill="none" stroke="#9ca3af" d="M760.5,-446C760.5,-446 1154,-446 1154,-446 1160,-446 1166,-452 1166,-458 1166,-458 1166,-585 1166,-585 1166,-591 1160,-597 1154,-597 1154,-597 760.5,-597 760.5,-597 754.5,-597 748.5,-591 748.5,-585 748.5,-585 748.5,-458 748.5,-458 748.5,-452 754.5,-446 760.5,-446"/>
<text text-anchor="middle" x="957.25" y="-583.4" font-family="Helvetica,sans-Serif" font-size="12.00">Execution Runtime</text>
</g>
<g id="clust5" class="cluster">
<title>cluster_workflow</title>
<path fill="none" stroke="#9ca3af" d="M1266,-444C1266,-444 2142,-444 2142,-444 2148,-444 2154,-450 2154,-456 2154,-456 2154,-515 2154,-515 2154,-521 2148,-527 2142,-527 2142,-527 1266,-527 1266,-527 1260,-527 1254,-521 1254,-515 1254,-515 1254,-456 1254,-456 1254,-450 1260,-444 1266,-444"/>
<text text-anchor="middle" x="1704" y="-513.4" font-family="Helvetica,sans-Serif" font-size="12.00">Workflow Definition</text>
</g>
<g id="clust6" class="cluster">
<title>cluster_io</title>
<path fill="none" stroke="#9ca3af" d="M1947,-269C1947,-269 2142,-269 2142,-269 2148,-269 2154,-275 2154,-281 2154,-281 2154,-402 2154,-402 2154,-408 2148,-414 2142,-414 2142,-414 1947,-414 1947,-414 1941,-414 1935,-408 1935,-402 1935,-402 1935,-281 1935,-281 1935,-275 1941,-269 1947,-269"/>
<text text-anchor="middle" x="2044.5" y="-400.4" font-family="Helvetica,sans-Serif" font-size="12.00">Data IO</text>
</g>
<!-- run_pipeline -->
<g id="node1" class="node">
<title>run_pipeline</title>
<path fill="#dbeafe" stroke="#4b5563" d="M181,-513C181,-513 36,-513 36,-513 30,-513 24,-507 24,-501 24,-501 24,-489 24,-489 24,-483 30,-477 36,-477 36,-477 181,-477 181,-477 187,-477 193,-483 193,-489 193,-489 193,-501 193,-501 193,-507 187,-513 181,-513"/>
<text text-anchor="middle" x="108.5" y="-498" font-family="Helvetica,sans-Serif" font-size="10.00">pipeline/run_pipeline.py</text>
<text text-anchor="middle" x="108.5" y="-487" font-family="Helvetica,sans-Serif" font-size="10.00">(local/container batch wrapper)</text>
</g>
<!-- run_utils -->
<g id="node3" class="node">
<title>run_utils</title>
<path fill="white" stroke="#4b5563" d="M574,-383C574,-383 311,-383 311,-383 305,-383 299,-377 299,-371 299,-371 299,-359 299,-359 299,-353 305,-347 311,-347 311,-347 574,-347 574,-347 580,-347 586,-353 586,-359 586,-359 586,-371 586,-371 586,-377 580,-383 574,-383"/>
<text text-anchor="middle" x="442.5" y="-368" font-family="Helvetica,sans-Serif" font-size="10.00">pipeline/run_utils/*</text>
<text text-anchor="middle" x="442.5" y="-357" font-family="Helvetica,sans-Serif" font-size="10.00">(batchExecutor, aggregate, subjects, progress, cleanup)</text>
</g>
<!-- run_pipeline&#45;&gt;run_utils -->
<g id="edge1" class="edge">
<title>run_pipeline&#45;&gt;run_utils</title>
<path fill="none" stroke="#4b5563" d="M164.97,-476.95C179.51,-471.68 195.03,-465.55 209,-459 247.24,-441.08 252.32,-427.95 291,-411 313.89,-400.97 339.64,-392.23 363.27,-385.15"/>
<polygon fill="#4b5563" stroke="#4b5563" points="364.19,-387.43 370.21,-383.1 362.8,-382.73 364.19,-387.43"/>
<text text-anchor="middle" x="250" y="-449.8" font-family="Helvetica,sans-Serif" font-size="9.00">imports</text>
</g>
<!-- profile_tyks -->
<g id="node7" class="node">
<title>profile_tyks</title>
<path fill="white" stroke="#4b5563" d="M536,-856C536,-856 349,-856 349,-856 343,-856 337,-850 337,-844 337,-844 337,-832 337,-832 337,-826 343,-820 349,-820 349,-820 536,-820 536,-820 542,-820 548,-826 548,-832 548,-832 548,-844 548,-844 548,-850 542,-856 536,-856"/>
<text text-anchor="middle" x="442.5" y="-841" font-family="Helvetica,sans-Serif" font-size="10.00">pipeline/config/profiles/tyks/config.yaml</text>
<text text-anchor="middle" x="442.5" y="-830" font-family="Helvetica,sans-Serif" font-size="10.00">(local profile)</text>
</g>
<!-- run_pipeline&#45;&gt;profile_tyks -->
<g id="edge3" class="edge">
<title>run_pipeline&#45;&gt;profile_tyks</title>
<path fill="none" stroke="#4b5563" d="M113.93,-513.39C128.33,-568.61 179.45,-733.4 291,-802 303,-809.38 316.39,-815.24 330.11,-819.91"/>
<polygon fill="#4b5563" stroke="#4b5563" points="329.45,-822.27 336.86,-822.1 330.96,-817.61 329.45,-822.27"/>
<text text-anchor="middle" x="250" y="-787.8" font-family="Helvetica,sans-Serif" font-size="9.00">&#45;&#45;profile</text>
</g>
<!-- snakemake -->
<g id="node9" class="node">
<title>snakemake</title>
<path fill="white" stroke="#4b5563" d="M852.5,-568C852.5,-568 785.5,-568 785.5,-568 779.5,-568 773.5,-562 773.5,-556 773.5,-556 773.5,-544 773.5,-544 773.5,-538 779.5,-532 785.5,-532 785.5,-532 852.5,-532 852.5,-532 858.5,-532 864.5,-538 864.5,-544 864.5,-544 864.5,-556 864.5,-556 864.5,-562 858.5,-568 852.5,-568"/>
<text text-anchor="middle" x="819" y="-547.5" font-family="Helvetica,sans-Serif" font-size="10.00">Snakemake CLI</text>
</g>
<!-- run_pipeline&#45;&gt;snakemake -->
<g id="edge2" class="edge">
<title>run_pipeline&#45;&gt;snakemake</title>
<path fill="none" stroke="#4b5563" d="M114.91,-513.22C127.6,-552.18 163.32,-642.96 230,-679 422.11,-782.83 692.34,-631.23 785.18,-571.99"/>
<polygon fill="#4b5563" stroke="#4b5563" points="786.74,-573.91 791.3,-568.06 784.08,-569.79 786.74,-573.91"/>
<text text-anchor="middle" x="442.5" y="-716.8" font-family="Helvetica,sans-Serif" font-size="9.00">invokes</text>
</g>
<!-- snakefile -->
<g id="node13" class="node">
<title>snakefile</title>
<path fill="white" stroke="#4b5563" d="M1488,-493C1488,-493 1274,-493 1274,-493 1268,-493 1262,-487 1262,-481 1262,-481 1262,-469 1262,-469 1262,-463 1268,-457 1274,-457 1274,-457 1488,-457 1488,-457 1494,-457 1500,-463 1500,-469 1500,-469 1500,-481 1500,-481 1500,-487 1494,-493 1488,-493"/>
<text text-anchor="middle" x="1381" y="-478" font-family="Helvetica,sans-Serif" font-size="10.00">pipeline/workflow/Snakefile</text>
<text text-anchor="middle" x="1381" y="-467" font-family="Helvetica,sans-Serif" font-size="10.00">(rule inclusion + subject discovery + targets)</text>
</g>
<!-- run_pipeline&#45;&gt;snakefile -->
<g id="edge4" class="edge">
<title>run_pipeline&#45;&gt;snakefile</title>
<path fill="none" stroke="#4b5563" d="M183.32,-476.95C192.79,-472.27 201.71,-466.39 209,-459 223.54,-444.27 264.41,-302.93 270,-283 281.91,-240.53 256.67,-213.69 291,-186 460,-49.67 1154.87,-367.14 1336.43,-453.85"/>
<polygon fill="#4b5563" stroke="#4b5563" points="1335.56,-456.15 1342.93,-456.96 1337.67,-451.73 1335.56,-456.15"/>
<text text-anchor="middle" x="819" y="-263.8" font-family="Helvetica,sans-Serif" font-size="9.00">&#45;&#45;snakefile workflow/Snakefile</text>
</g>
<!-- run_csc -->
<g id="node2" class="node">
<title>run_csc</title>
<path fill="#dbeafe" stroke="#4b5563" d="M189,-441C189,-441 28,-441 28,-441 22,-441 16,-435 16,-429 16,-429 16,-417 16,-417 16,-411 22,-405 28,-405 28,-405 189,-405 189,-405 195,-405 201,-411 201,-417 201,-417 201,-429 201,-429 201,-435 195,-441 189,-441"/>
<text text-anchor="middle" x="108.5" y="-426" font-family="Helvetica,sans-Serif" font-size="10.00">pipeline/run_csc.py</text>
<text text-anchor="middle" x="108.5" y="-415" font-family="Helvetica,sans-Serif" font-size="10.00">(CSC SLURM + Apptainer wrapper)</text>
</g>
<!-- env_setup -->
<g id="node4" class="node">
<title>env_setup</title>
<path fill="white" stroke="#4b5563" d="M509,-239C509,-239 376,-239 376,-239 370,-239 364,-233 364,-227 364,-227 364,-215 364,-215 364,-209 370,-203 376,-203 376,-203 509,-203 509,-203 515,-203 521,-209 521,-215 521,-215 521,-227 521,-227 521,-233 515,-239 509,-239"/>
<text text-anchor="middle" x="442.5" y="-224" font-family="Helvetica,sans-Serif" font-size="10.00">CSC env setup</text>
<text text-anchor="middle" x="442.5" y="-213" font-family="Helvetica,sans-Serif" font-size="10.00">(TMPDIR, APPTAINER_* vars)</text>
</g>
<!-- run_csc&#45;&gt;env_setup -->
<g id="edge5" class="edge">
<title>run_csc&#45;&gt;env_setup</title>
<path fill="none" stroke="#4b5563" d="M123.84,-404.81C152.01,-370.36 218.2,-295.63 291,-257 311.22,-246.27 334.64,-238.7 356.91,-233.37"/>
<polygon fill="#4b5563" stroke="#4b5563" points="357.5,-235.74 363.77,-231.78 356.4,-230.97 357.5,-235.74"/>
<text text-anchor="middle" x="250" y="-295.8" font-family="Helvetica,sans-Serif" font-size="9.00">prepares</text>
</g>
<!-- profile_gen -->
<g id="node5" class="node">
<title>profile_gen</title>
<path fill="white" stroke="#4b5563" d="M506.5,-311C506.5,-311 378.5,-311 378.5,-311 372.5,-311 366.5,-305 366.5,-299 366.5,-299 366.5,-287 366.5,-287 366.5,-281 372.5,-275 378.5,-275 378.5,-275 506.5,-275 506.5,-275 512.5,-275 518.5,-281 518.5,-287 518.5,-287 518.5,-299 518.5,-299 518.5,-305 512.5,-311 506.5,-311"/>
<text text-anchor="middle" x="442.5" y="-296" font-family="Helvetica,sans-Serif" font-size="10.00">write_profile()</text>
<text text-anchor="middle" x="442.5" y="-285" font-family="Helvetica,sans-Serif" font-size="10.00">(generates csc/config.yaml)</text>
</g>
<!-- run_csc&#45;&gt;profile_gen -->
<g id="edge6" class="edge">
<title>run_csc&#45;&gt;profile_gen</title>
<path fill="none" stroke="#4b5563" d="M138.98,-404.87C174.06,-383.98 234.96,-349.86 291,-329 312.68,-320.93 336.8,-314.22 359.26,-308.86"/>
<polygon fill="#4b5563" stroke="#4b5563" points="359.92,-311.22 366.18,-307.24 358.8,-306.45 359.92,-311.22"/>
<text text-anchor="middle" x="250" y="-355.8" font-family="Helvetica,sans-Serif" font-size="9.00">creates</text>
</g>
<!-- profile_csc -->
<g id="node8" class="node">
<title>profile_csc</title>
<path fill="white" stroke="#4b5563" d="M533.5,-784C533.5,-784 351.5,-784 351.5,-784 345.5,-784 339.5,-778 339.5,-772 339.5,-772 339.5,-760 339.5,-760 339.5,-754 345.5,-748 351.5,-748 351.5,-748 533.5,-748 533.5,-748 539.5,-748 545.5,-754 545.5,-760 545.5,-760 545.5,-772 545.5,-772 545.5,-778 539.5,-784 533.5,-784"/>
<text text-anchor="middle" x="442.5" y="-769" font-family="Helvetica,sans-Serif" font-size="10.00">pipeline/config/profiles/csc/config.yaml</text>
<text text-anchor="middle" x="442.5" y="-758" font-family="Helvetica,sans-Serif" font-size="10.00">(CSC profile; auto&#45;overwritten)</text>
</g>
<!-- run_csc&#45;&gt;profile_csc -->
<g id="edge9" class="edge">
<title>run_csc&#45;&gt;profile_csc</title>
<path fill="none" stroke="#4b5563" d="M186.02,-441.07C194.69,-445.73 202.66,-451.61 209,-459 240.54,-495.79 216.4,-519.48 230,-566 250.77,-637.06 236.49,-670.91 291,-721 302.95,-731.98 317.47,-740.29 332.73,-746.57"/>
<polygon fill="#4b5563" stroke="#4b5563" points="331.9,-748.87 339.31,-749.14 333.68,-744.31 331.9,-748.87"/>
<text text-anchor="middle" x="250" y="-699.8" font-family="Helvetica,sans-Serif" font-size="9.00">&#45;&#45;profile</text>
</g>
<!-- run_csc&#45;&gt;snakemake -->
<g id="edge8" class="edge">
<title>run_csc&#45;&gt;snakemake</title>
<path fill="none" stroke="#4b5563" d="M182.9,-441.1C192.49,-445.77 201.55,-451.64 209,-459 227.9,-477.69 208.61,-499.22 230,-515 232.69,-516.98 622.8,-539.05 766.03,-547.09"/>
<polygon fill="#4b5563" stroke="#4b5563" points="765.95,-549.54 773.07,-547.49 766.22,-544.65 765.95,-549.54"/>
<text text-anchor="middle" x="442.5" y="-539.8" font-family="Helvetica,sans-Serif" font-size="9.00">invokes</text>
</g>
<!-- container_image -->
<g id="node11" class="node">
<title>container_image</title>
<path fill="white" stroke="#4b5563" d="M1146,-495.5C1146,-495.5 1029,-495.5 1029,-495.5 1023,-495.5 1017,-489.5 1017,-483.5 1017,-483.5 1017,-466.5 1017,-466.5 1017,-460.5 1023,-454.5 1029,-454.5 1029,-454.5 1146,-454.5 1146,-454.5 1152,-454.5 1158,-460.5 1158,-466.5 1158,-466.5 1158,-483.5 1158,-483.5 1158,-489.5 1152,-495.5 1146,-495.5"/>
<text text-anchor="middle" x="1087.5" y="-483.5" font-family="Helvetica,sans-Serif" font-size="10.00">Container image</text>
<text text-anchor="middle" x="1087.5" y="-472.5" font-family="Helvetica,sans-Serif" font-size="10.00">(.sif or docker://...)</text>
<text text-anchor="middle" x="1087.5" y="-461.5" font-family="Helvetica,sans-Serif" font-size="10.00">used by Snakemake rules</text>
</g>
<!-- run_csc&#45;&gt;container_image -->
<g id="edge21" class="edge">
<title>run_csc&#45;&gt;container_image</title>
<path fill="none" stroke="#4b5563" d="M113.74,-404.93C127.72,-349.95 178.1,-184.44 291,-120 405.83,-54.46 772.22,-52.65 886,-120 1010.89,-193.92 1064.34,-377.15 1080.67,-447.18"/>
<polygon fill="#4b5563" stroke="#4b5563" points="1078.37,-448.09 1082.31,-454.37 1083.15,-447 1078.37,-448.09"/>
<text text-anchor="middle" x="669" y="-78.8" font-family="Helvetica,sans-Serif" font-size="9.00">&#45;&#45;sif &#45;&gt; container_image</text>
</g>
<!-- run_csc&#45;&gt;snakefile -->
<g id="edge10" class="edge">
<title>run_csc&#45;&gt;snakefile</title>
<path fill="none" stroke="#4b5563" d="M114.21,-404.66C127.24,-356.03 167.03,-220.91 230,-124 289.37,-32.63 332.54,0 441.5,0 441.5,0 441.5,0 1088.5,0 1301.62,0 1363.8,-351.63 1377,-449.81"/>
<polygon fill="#4b5563" stroke="#4b5563" points="1374.6,-450.34 1377.94,-456.96 1379.46,-449.7 1374.6,-450.34"/>
<text text-anchor="middle" x="819" y="-2.8" font-family="Helvetica,sans-Serif" font-size="9.00">&#45;&#45;snakefile workflow/Snakefile</text>
</g>
<!-- run_utils&#45;&gt;snakemake -->
<g id="edge11" class="edge">
<title>run_utils&#45;&gt;snakemake</title>
<path fill="none" stroke="#4b5563" d="M517.83,-383.06C542.64,-390.3 570.05,-399.66 594,-411 668.58,-446.32 677.42,-472.07 748.5,-514 756.88,-518.94 766.01,-523.94 774.82,-528.57"/>
<polygon fill="#4b5563" stroke="#4b5563" points="773.82,-530.81 781.16,-531.87 776.08,-526.47 773.82,-530.81"/>
<text text-anchor="middle" x="669" y="-499.8" font-family="Helvetica,sans-Serif" font-size="9.00">batch/aggregation runs</text>
</g>
<!-- profile_gen&#45;&gt;profile_csc -->
<g id="edge7" class="edge">
<title>profile_gen&#45;&gt;profile_csc</title>
<path fill="none" stroke="#4b5563" d="M366.4,-293.8C338.92,-298.08 310.02,-307.92 291,-329 238.45,-387.24 273.12,-425.72 268,-504 261.67,-600.78 228.79,-646.6 291,-721 302.01,-734.17 316.69,-743.59 332.58,-750.31"/>
<polygon fill="#4b5563" stroke="#4b5563" points="332.05,-752.73 339.46,-753.02 333.85,-748.17 332.05,-752.73"/>
<text text-anchor="middle" x="250" y="-506.8" font-family="Helvetica,sans-Serif" font-size="9.00">writes</text>
</g>
<!-- general_cfg -->
<g id="node6" class="node">
<title>general_cfg</title>
<path fill="white" stroke="#4b5563" d="M531.5,-928C531.5,-928 353.5,-928 353.5,-928 347.5,-928 341.5,-922 341.5,-916 341.5,-916 341.5,-904 341.5,-904 341.5,-898 347.5,-892 353.5,-892 353.5,-892 531.5,-892 531.5,-892 537.5,-892 543.5,-898 543.5,-904 543.5,-904 543.5,-916 543.5,-916 543.5,-922 537.5,-928 531.5,-928"/>
<text text-anchor="middle" x="442.5" y="-913" font-family="Helvetica,sans-Serif" font-size="10.00">pipeline/config/config.yaml</text>
<text text-anchor="middle" x="442.5" y="-902" font-family="Helvetica,sans-Serif" font-size="10.00">(general defaults loaded by Snakefile)</text>
</g>
<!-- general_cfg&#45;&gt;snakefile -->
<g id="edge16" class="edge">
<title>general_cfg&#45;&gt;snakefile</title>
<path fill="none" stroke="#4b5563" d="M543.74,-894.17C597.72,-884.15 664.96,-869.23 723,-849 961.38,-765.93 1021.61,-736.97 1233,-599 1279.92,-568.38 1328.49,-524.62 1356.39,-498.1"/>
<polygon fill="#4b5563" stroke="#4b5563" points="1358.32,-499.65 1361.69,-493.04 1354.93,-496.11 1358.32,-499.65"/>
<text text-anchor="middle" x="951.5" y="-778.8" font-family="Helvetica,sans-Serif" font-size="9.00">configfile</text>
</g>
<!-- profile_tyks&#45;&gt;snakemake -->
<g id="edge12" class="edge">
<title>profile_tyks&#45;&gt;snakemake</title>
<path fill="none" stroke="#4b5563" d="M548.3,-840.57C605.62,-836.72 674.61,-822.85 723,-783 788.27,-729.24 809.15,-623.57 815.45,-575.23"/>
<polygon fill="#4b5563" stroke="#4b5563" points="817.89,-575.49 816.31,-568.25 813.02,-574.9 817.89,-575.49"/>
<text text-anchor="middle" x="669" y="-832.8" font-family="Helvetica,sans-Serif" font-size="9.00">execution settings</text>
</g>
<!-- profile_csc&#45;&gt;snakemake -->
<g id="edge13" class="edge">
<title>profile_csc&#45;&gt;snakemake</title>
<path fill="none" stroke="#4b5563" d="M545.65,-771.96C602.47,-770.36 671.82,-759.78 723,-724 774.92,-687.71 801.29,-613.67 812.01,-574.91"/>
<polygon fill="#4b5563" stroke="#4b5563" points="814.39,-575.5 813.83,-568.1 809.65,-574.23 814.39,-575.5"/>
<text text-anchor="middle" x="669" y="-766.8" font-family="Helvetica,sans-Serif" font-size="9.00">execution settings</text>
</g>
<!-- slurm -->
<g id="node10" class="node">
<title>slurm</title>
<path fill="white" stroke="#4b5563" d="M1123.5,-568C1123.5,-568 1051.5,-568 1051.5,-568 1045.5,-568 1039.5,-562 1039.5,-556 1039.5,-556 1039.5,-544 1039.5,-544 1039.5,-538 1045.5,-532 1051.5,-532 1051.5,-532 1123.5,-532 1123.5,-532 1129.5,-532 1135.5,-538 1135.5,-544 1135.5,-544 1135.5,-556 1135.5,-556 1135.5,-562 1129.5,-568 1123.5,-568"/>
<text text-anchor="middle" x="1087.5" y="-553" font-family="Helvetica,sans-Serif" font-size="10.00">SLURM executor</text>
<text text-anchor="middle" x="1087.5" y="-542" font-family="Helvetica,sans-Serif" font-size="10.00">(CSC only)</text>
</g>
<!-- snakemake&#45;&gt;slurm -->
<g id="edge14" class="edge">
<title>snakemake&#45;&gt;slurm</title>
<path fill="none" stroke="#4b5563" d="M864.61,-550C910.65,-550 982.53,-550 1031.93,-550"/>
<polygon fill="#4b5563" stroke="#4b5563" points="1032.05,-552.45 1039.05,-550 1032.05,-547.55 1032.05,-552.45"/>
<text text-anchor="middle" x="951.5" y="-552.8" font-family="Helvetica,sans-Serif" font-size="9.00">executor=slurm</text>
</g>
<!-- snakemake&#45;&gt;snakefile -->
<g id="edge15" class="edge">
<title>snakemake&#45;&gt;snakefile</title>
<path fill="none" stroke="#4b5563" d="M864.62,-564.21C931.17,-583.26 1059.95,-611.87 1166,-586 1236.05,-568.91 1308.74,-524.55 1348.79,-497.37"/>
<polygon fill="#4b5563" stroke="#4b5563" points="1350.54,-499.13 1354.93,-493.16 1347.77,-495.09 1350.54,-499.13"/>
<text text-anchor="middle" x="1087.5" y="-598.8" font-family="Helvetica,sans-Serif" font-size="9.00">executes workflow</text>
</g>
<!-- container_image&#45;&gt;snakefile -->
<g id="edge17" class="edge">
<title>container_image&#45;&gt;snakefile</title>
<path fill="none" stroke="#4b5563" d="M1158.32,-475C1187.26,-475 1221.73,-475 1254.76,-475"/>
<polygon fill="#4b5563" stroke="#4b5563" points="1254.79,-477.45 1261.79,-475 1254.79,-472.55 1254.79,-477.45"/>
<text text-anchor="middle" x="1210" y="-477.8" font-family="Helvetica,sans-Serif" font-size="9.00">container:</text>
</g>
<!-- dockerfile -->
<g id="node12" class="node">
<title>dockerfile</title>
<path fill="#dbeafe" stroke="#4b5563" d="M869.5,-496C869.5,-496 768.5,-496 768.5,-496 762.5,-496 756.5,-490 756.5,-484 756.5,-484 756.5,-472 756.5,-472 756.5,-466 762.5,-460 768.5,-460 768.5,-460 869.5,-460 869.5,-460 875.5,-460 881.5,-466 881.5,-472 881.5,-472 881.5,-484 881.5,-484 881.5,-490 875.5,-496 869.5,-496"/>
<text text-anchor="middle" x="819" y="-481" font-family="Helvetica,sans-Serif" font-size="10.00">pipeline/Dockerfile</text>
<text text-anchor="middle" x="819" y="-470" font-family="Helvetica,sans-Serif" font-size="10.00">(builds default image)</text>
</g>
<!-- dockerfile&#45;&gt;run_pipeline -->
<g id="edge19" class="edge">
<title>dockerfile&#45;&gt;run_pipeline</title>
<path fill="none" stroke="#4b5563" d="M774.74,-496.07C758.6,-502.61 740.06,-509.89 723,-516 666.37,-536.3 653.31,-546.96 594,-557 451.97,-581.05 414.04,-564 270,-566 252.22,-566.25 247.15,-570.68 230,-566 195.45,-556.58 160.71,-534.44 137.47,-517.37"/>
<polygon fill="#4b5563" stroke="#4b5563" points="138.89,-515.38 131.81,-513.15 135.96,-519.3 138.89,-515.38"/>
<text text-anchor="middle" x="442.5" y="-572.8" font-family="Helvetica,sans-Serif" font-size="9.00">ENTRYPOINT (default): run_pipeline.py</text>
</g>
<!-- dockerfile&#45;&gt;run_csc -->
<g id="edge20" class="edge">
<title>dockerfile&#45;&gt;run_csc</title>
<path fill="none" stroke="#4b5563" d="M756.38,-473.22C633.5,-463.68 357.05,-442.22 208.45,-430.68"/>
<polygon fill="#4b5563" stroke="#4b5563" points="208.2,-428.2 201.04,-430.11 207.82,-433.09 208.2,-428.2"/>
<text text-anchor="middle" x="442.5" y="-462.8" font-family="Helvetica,sans-Serif" font-size="9.00">ENTRYPOINT (overridden by the user): run_csc.py</text>
</g>
<!-- dockerfile&#45;&gt;container_image -->
<g id="edge18" class="edge">
<title>dockerfile&#45;&gt;container_image</title>
<path fill="none" stroke="#4b5563" d="M881.81,-477.3C919.81,-476.88 968.83,-476.32 1009.36,-475.87"/>
<polygon fill="#4b5563" stroke="#4b5563" points="1009.6,-478.32 1016.57,-475.79 1009.54,-473.42 1009.6,-478.32"/>
<text text-anchor="middle" x="951.5" y="-478.8" font-family="Helvetica,sans-Serif" font-size="9.00">build source</text>
</g>
<!-- rules -->
<g id="node14" class="node">
<title>rules</title>
<path fill="white" stroke="#4b5563" d="M1781,-497.5C1781,-497.5 1604,-497.5 1604,-497.5 1598,-497.5 1592,-491.5 1592,-485.5 1592,-485.5 1592,-468.5 1592,-468.5 1592,-462.5 1598,-456.5 1604,-456.5 1604,-456.5 1781,-456.5 1781,-456.5 1787,-456.5 1793,-462.5 1793,-468.5 1793,-468.5 1793,-485.5 1793,-485.5 1793,-491.5 1787,-497.5 1781,-497.5"/>
<text text-anchor="middle" x="1692.5" y="-485.5" font-family="Helvetica,sans-Serif" font-size="10.00">pipeline/workflow/rules/*.smk</text>
<text text-anchor="middle" x="1692.5" y="-474.5" font-family="Helvetica,sans-Serif" font-size="10.00">(hsf_segmentation, data_processing,</text>
<text text-anchor="middle" x="1692.5" y="-463.5" font-family="Helvetica,sans-Serif" font-size="10.00">mesh_generation, feature_extraction)</text>
</g>
<!-- snakefile&#45;&gt;rules -->
<g id="edge22" class="edge">
<title>snakefile&#45;&gt;rules</title>
<path fill="none" stroke="#4b5563" d="M1500.33,-475.76C1528.06,-475.94 1557.44,-476.13 1584.63,-476.31"/>
<polygon fill="#4b5563" stroke="#4b5563" points="1584.85,-478.76 1591.87,-476.36 1584.89,-473.86 1584.85,-478.76"/>
<text text-anchor="middle" x="1546" y="-478.8" font-family="Helvetica,sans-Serif" font-size="9.00">include</text>
</g>
<!-- scripts -->
<g id="node15" class="node">
<title>scripts</title>
<path fill="white" stroke="#4b5563" d="M2134,-497.5C2134,-497.5 1955,-497.5 1955,-497.5 1949,-497.5 1943,-491.5 1943,-485.5 1943,-485.5 1943,-468.5 1943,-468.5 1943,-462.5 1949,-456.5 1955,-456.5 1955,-456.5 2134,-456.5 2134,-456.5 2140,-456.5 2146,-462.5 2146,-468.5 2146,-468.5 2146,-485.5 2146,-485.5 2146,-491.5 2140,-497.5 2134,-497.5"/>
<text text-anchor="middle" x="2044.5" y="-485.5" font-family="Helvetica,sans-Serif" font-size="10.00">pipeline/workflow/scripts/*.py</text>
<text text-anchor="middle" x="2044.5" y="-474.5" font-family="Helvetica,sans-Serif" font-size="10.00">(hsf_wrapper, nii_parse, voxelToMesh,</text>
<text text-anchor="middle" x="2044.5" y="-463.5" font-family="Helvetica,sans-Serif" font-size="10.00">feature_extraction, cli_aggregate)</text>
</g>
<!-- rules&#45;&gt;scripts -->
<g id="edge23" class="edge">
<title>rules&#45;&gt;scripts</title>
<path fill="none" stroke="#4b5563" d="M1793.33,-477C1837.82,-477 1890.32,-477 1935.71,-477"/>
<polygon fill="#4b5563" stroke="#4b5563" points="1935.93,-479.45 1942.93,-477 1935.93,-474.55 1935.93,-479.45"/>
<text text-anchor="middle" x="1868" y="-479.8" font-family="Helvetica,sans-Serif" font-size="9.00">shell: python scripts</text>
</g>
<!-- derivatives -->
<g id="node17" class="node">
<title>derivatives</title>
<path fill="white" stroke="#4b5563" d="M2134,-385C2134,-385 1955,-385 1955,-385 1949,-385 1943,-379 1943,-373 1943,-373 1943,-361 1943,-361 1943,-355 1949,-349 1955,-349 1955,-349 2134,-349 2134,-349 2140,-349 2146,-355 2146,-361 2146,-361 2146,-373 2146,-373 2146,-379 2140,-385 2134,-385"/>
<text text-anchor="middle" x="2044.5" y="-370" font-family="Helvetica,sans-Serif" font-size="10.00">Derivatives + summary outputs</text>
<text text-anchor="middle" x="2044.5" y="-359" font-family="Helvetica,sans-Serif" font-size="10.00">(sub&#45;*/... + summary/all_features.csv)</text>
</g>
<!-- rules&#45;&gt;derivatives -->
<g id="edge26" class="edge">
<title>rules&#45;&gt;derivatives</title>
<path fill="none" stroke="#4b5563" d="M1758.92,-456.44C1822.01,-436.61 1916.9,-406.79 1979.51,-387.11"/>
<polygon fill="#4b5563" stroke="#4b5563" points="1980.28,-389.44 1986.22,-385 1978.81,-384.76 1980.28,-389.44"/>
<text text-anchor="middle" x="1868" y="-437.8" font-family="Helvetica,sans-Serif" font-size="9.00">final targets</text>
</g>
<!-- scripts&#45;&gt;derivatives -->
<g id="edge25" class="edge">
<title>scripts&#45;&gt;derivatives</title>
<path fill="none" stroke="#4b5563" d="M2044.5,-456.18C2044.5,-438 2044.5,-411.58 2044.5,-392.21"/>
<polygon fill="#4b5563" stroke="#4b5563" points="2046.95,-392.16 2044.5,-385.16 2042.05,-392.16 2046.95,-392.16"/>
<text text-anchor="middle" x="2036.5" y="-418.55" font-family="Helvetica,sans-Serif" font-size="9.00">write outputs</text>
</g>
<!-- bids -->
<g id="node16" class="node">
<title>bids</title>
<path fill="white" stroke="#4b5563" d="M2115.5,-313C2115.5,-313 1973.5,-313 1973.5,-313 1967.5,-313 1961.5,-307 1961.5,-301 1961.5,-301 1961.5,-289 1961.5,-289 1961.5,-283 1967.5,-277 1973.5,-277 1973.5,-277 2115.5,-277 2115.5,-277 2121.5,-277 2127.5,-283 2127.5,-289 2127.5,-289 2127.5,-301 2127.5,-301 2127.5,-307 2121.5,-313 2115.5,-313"/>
<text text-anchor="middle" x="2044.5" y="-298" font-family="Helvetica,sans-Serif" font-size="10.00">BIDS input dataset</text>
<text text-anchor="middle" x="2044.5" y="-287" font-family="Helvetica,sans-Serif" font-size="10.00">(sub&#45;*/ses&#45;*/anat/*_T1w.nii.gz)</text>
</g>
<!-- bids&#45;&gt;snakefile -->
<g id="edge24" class="edge">
<title>bids&#45;&gt;snakefile</title>
<path fill="none" stroke="#4b5563" d="M1977.01,-313.09C1852.35,-347.01 1584.42,-419.92 1454.96,-455.15"/>
<polygon fill="#4b5563" stroke="#4b5563" points="1454.26,-452.8 1448.15,-457 1455.55,-457.53 1454.26,-452.8"/>
<text text-anchor="middle" x="1692.5" y="-419.8" font-family="Helvetica,sans-Serif" font-size="9.00">discover subjects/sessions</text>
</g>
</g>
</svg>
