<?xml version="1.0" encoding="UTF-8" standalone="no"?>
<!DOCTYPE svg PUBLIC "-//W3C//DTD SVG 1.1//EN"
 "http://www.w3.org/Graphics/SVG/1.1/DTD/svg11.dtd">
<!-- Generated by graphviz version 2.42.4 (0)
 -->
<!-- Title: PipelineComponents Pages: 1 -->
<svg width="2490pt" height="747pt"
 viewBox="0.00 0.00 2490.00 747.00" xmlns="http://www.w3.org/2000/svg" xmlns:xlink="http://www.w3.org/1999/xlink">
<g id="graph0" class="graph" transform="scale(1 1) rotate(0) translate(4 743)">
<title>PipelineComponents</title>
<polygon fill="white" stroke="transparent" points="-4,4 -4,-743 2486,-743 2486,4 -4,4"/>
<text text-anchor="middle" x="1241" y="-725.4" font-family="Helvetica,sans-Serif" font-size="12.00">Hippocampus Pipeline &#45; High&#45;Level Component Diagram</text>
<g id="clust1" class="cluster">
<title>cluster_entry</title>
<path fill="none" stroke="#9ca3af" d="M20,-279C20,-279 197,-279 197,-279 203,-279 209,-285 209,-291 209,-291 209,-412 209,-412 209,-418 203,-424 197,-424 197,-424 20,-424 20,-424 14,-424 8,-418 8,-412 8,-412 8,-291 8,-291 8,-285 14,-279 20,-279"/>
<text text-anchor="middle" x="108.5" y="-410.4" font-family="Helvetica,sans-Serif" font-size="12.00">Main Entry Points</text>
</g>
<g id="clust2" class="cluster">
<title>cluster_wrapper</title>
<path fill="none" stroke="#9ca3af" d="M303,-360C303,-360 582,-360 582,-360 588,-360 594,-366 594,-372 594,-372 594,-565 594,-565 594,-571 588,-577 582,-577 582,-577 303,-577 303,-577 297,-577 291,-571 291,-565 291,-565 291,-372 291,-372 291,-366 297,-360 303,-360"/>
<text text-anchor="middle" x="442.5" y="-563.4" font-family="Helvetica,sans-Serif" font-size="12.00">Wrapper Layer</text>
</g>
<g id="clust3" class="cluster">
<title>cluster_config</title>
<path fill="none" stroke="#9ca3af" d="M682,-450C682,-450 885,-450 885,-450 891,-450 897,-456 897,-462 897,-462 897,-655 897,-655 897,-661 891,-667 885,-667 885,-667 682,-667 682,-667 676,-667 670,-661 670,-655 670,-655 670,-462 670,-462 670,-456 676,-450 682,-450"/>
<text text-anchor="middle" x="783.5" y="-653.4" font-family="Helvetica,sans-Serif" font-size="12.00">Configuration</text>
</g>
<g id="clust4" class="cluster">
<title>cluster_runtime</title>
<path fill="none" stroke="#9ca3af" d="M1085,-286C1085,-286 1474,-286 1474,-286 1480,-286 1486,-292 1486,-298 1486,-298 1486,-425 1486,-425 1486,-431 1480,-437 1474,-437 1474,-437 1085,-437 1085,-437 1079,-437 1073,-431 1073,-425 1073,-425 1073,-298 1073,-298 1073,-292 1079,-286 1085,-286"/>
<text text-anchor="middle" x="1279.5" y="-423.4" font-family="Helvetica,sans-Serif" font-size="12.00">Execution Runtime</text>
</g>
<g id="clust5" class="cluster">
<title>cluster_workflow</title>
<path fill="none" stroke="#9ca3af" d="M1586,-284C1586,-284 2462,-284 2462,-284 2468,-284 2474,-290 2474,-296 2474,-296 2474,-355 2474,-355 2474,-361 2468,-367 2462,-367 2462,-367 1586,-367 1586,-367 1580,-367 1574,-361 1574,-355 1574,-355 1574,-296 1574,-296 1574,-290 1580,-284 1586,-284"/>
<text text-anchor="middle" x="2024" y="-353.4" font-family="Helvetica,sans-Serif" font-size="12.00">Workflow Definition</text>
</g>
<g id="clust6" class="cluster">
<title>cluster_io</title>
<path fill="none" stroke="#9ca3af" d="M2267,-109C2267,-109 2462,-109 2462,-109 2468,-109 2474,-115 2474,-121 2474,-121 2474,-242 2474,-242 2474,-248 2468,-254 2462,-254 2462,-254 2267,-254 2267,-254 2261,-254 2255,-248 2255,-242 2255,-242 2255,-121 2255,-121 2255,-115 2261,-109 2267,-109"/>
<text text-anchor="middle" x="2364.5" y="-240.4" font-family="Helvetica,sans-Serif" font-size="12.00">Data IO</text>
</g>
<!-- run_pipeline -->
<g id="node1" class="node">
<title>run_pipeline</title>
<path fill="#dbeafe" stroke="#4b5563" d="M181,-395C181,-395 36,-395 36,-395 30,-395 24,-389 24,-383 24,-383 24,-371 24,-371 24,-365 30,-359 36,-359 36,-359 181,-359 181,-359 187,-359 193,-365 193,-371 193,-371 193,-383 193,-383 193,-389 187,-395 181,-395"/>
<text text-anchor="middle" x="108.5" y="-380" font-family="Helvetica,sans-Serif" font-size="10.00">pipeline/run_pipeline.py</text>
<text text-anchor="middle" x="108.5" y="-369" font-family="Helvetica,sans-Serif" font-size="10.00">(local/container batch wrapper)</text>
</g>
<!-- run_utils -->
<g id="node3" class="node">
<title>run_utils</title>
<path fill="white" stroke="#4b5563" d="M574,-548C574,-548 311,-548 311,-548 305,-548 299,-542 299,-536 299,-536 299,-524 299,-524 299,-518 305,-512 311,-512 311,-512 574,-512 574,-512 580,-512 586,-518 586,-524 586,-524 586,-536 586,-536 586,-542 580,-548 574,-548"/>
<text text-anchor="middle" x="442.5" y="-533" font-family="Helvetica,sans-Serif" font-size="10.00">pipeline/run_utils/*</text>
<text text-anchor="middle" x="442.5" y="-522" font-family="Helvetica,sans-Serif" font-size="10.00">(batchExecutor, aggregate, subjects, progress, cleanup)</text>
</g>
<!-- run_pipeline&#45;&gt;run_utils -->
<g id="edge1" class="edge">
<title>run_pipeline&#45;&gt;run_utils</title>
<path fill="none" stroke="#4b5563" d="M131.86,-395.02C164.78,-420.68 229.11,-467.57 291,-494 305.81,-500.33 321.93,-505.66 337.94,-510.13"/>
<polygon fill="#4b5563" stroke="#4b5563" points="337.4,-512.52 344.8,-511.99 338.68,-507.79 337.4,-512.52"/>
<text text-anchor="middle" x="250" y="-486.8" font-family="Helvetica,sans-Serif" font-size="9.00">imports</text>
</g>
<!-- profile_tyks -->
<g id="node7" class="node">
<title>profile_tyks</title>
<path fill="white" stroke="#4b5563" d="M877,-566C877,-566 690,-566 690,-566 684,-566 678,-560 678,-554 678,-554 678,-542 678,-542 678,-536 684,-530 690,-530 690,-530 877,-530 877,-530 883,-530 889,-536 889,-542 889,-542 889,-554 889,-554 889,-560 883,-566 877,-566"/>
<text text-anchor="middle" x="783.5" y="-551" font-family="Helvetica,sans-Serif" font-size="10.00">pipeline/config/profiles/tyks/config.yaml</text>
<text text-anchor="middle" x="783.5" y="-540" font-family="Helvetica,sans-Serif" font-size="10.00">(local profile)</text>
</g>
<!-- run_pipeline&#45;&gt;profile_tyks -->
<g id="edge3" class="edge">
<title>run_pipeline&#45;&gt;profile_tyks</title>
<path fill="none" stroke="#4b5563" d="M115.43,-395.1C132.88,-445.07 189.34,-584.82 291,-640 430.89,-715.92 520.31,-742.66 649,-649 673.55,-631.13 648.5,-605.44 670,-584 675.67,-578.35 682.23,-573.58 689.27,-569.56"/>
<polygon fill="#4b5563" stroke="#4b5563" points="690.82,-571.51 695.86,-566.08 688.53,-567.18 690.82,-571.51"/>
<text text-anchor="middle" x="442.5" y="-710.8" font-family="Helvetica,sans-Serif" font-size="9.00">&#45;&#45;profile</text>
</g>
<!-- snakemake -->
<g id="node9" class="node">
<title>snakemake</title>
<path fill="white" stroke="#4b5563" d="M1177,-408C1177,-408 1110,-408 1110,-408 1104,-408 1098,-402 1098,-396 1098,-396 1098,-384 1098,-384 1098,-378 1104,-372 1110,-372 1110,-372 1177,-372 1177,-372 1183,-372 1189,-378 1189,-384 1189,-384 1189,-396 1189,-396 1189,-402 1183,-408 1177,-408"/>
<text text-anchor="middle" x="1143.5" y="-387.5" font-family="Helvetica,sans-Serif" font-size="10.00">Snakemake CLI</text>
</g>
<!-- run_pipeline&#45;&gt;snakemake -->
<g id="edge2" class="edge">
<title>run_pipeline&#45;&gt;snakemake</title>
<path fill="none" stroke="#4b5563" d="M193.4,-374.12C218.38,-371.8 245.59,-367.81 270,-361 279.96,-358.22 280.92,-353.28 291,-351 587.74,-283.96 956.98,-349.73 1090.94,-378.25"/>
<polygon fill="#4b5563" stroke="#4b5563" points="1090.54,-380.67 1097.9,-379.75 1091.57,-375.88 1090.54,-380.67"/>
<text text-anchor="middle" x="632" y="-324.8" font-family="Helvetica,sans-Serif" font-size="9.00">invokes</text>
</g>
<!-- snakefile -->
<g id="node13" class="node">
<title>snakefile</title>
<path fill="white" stroke="#4b5563" d="M1808,-333C1808,-333 1594,-333 1594,-333 1588,-333 1582,-327 1582,-321 1582,-321 1582,-309 1582,-309 1582,-303 1588,-297 1594,-297 1594,-297 1808,-297 1808,-297 1814,-297 1820,-303 1820,-309 1820,-309 1820,-321 1820,-321 1820,-327 1814,-333 1808,-333"/>
<text text-anchor="middle" x="1701" y="-318" font-family="Helvetica,sans-Serif" font-size="10.00">pipeline/workflow/Snakefile</text>
<text text-anchor="middle" x="1701" y="-307" font-family="Helvetica,sans-Serif" font-size="10.00">(rule inclusion + subject discovery + targets)</text>
</g>
<!-- run_pipeline&#45;&gt;snakefile -->
<g id="edge4" class="edge">
<title>run_pipeline&#45;&gt;snakefile</title>
<path fill="none" stroke="#4b5563" d="M182.94,-358.94C192.52,-354.26 201.57,-348.38 209,-341 228.15,-321.97 209.59,-301.67 230,-284 302.65,-221.09 345.4,-239 441.5,-239 441.5,-239 441.5,-239 1408.5,-239 1496.45,-239 1594.64,-271.79 1651.66,-294.3"/>
<polygon fill="#4b5563" stroke="#4b5563" points="1651,-296.67 1658.41,-296.99 1652.81,-292.12 1651,-296.67"/>
<text text-anchor="middle" x="985" y="-241.8" font-family="Helvetica,sans-Serif" font-size="9.00">&#45;&#45;snakefile workflow/Snakefile</text>
</g>
<!-- run_csc -->
<g id="node2" class="node">
<title>run_csc</title>
<path fill="#dbeafe" stroke="#4b5563" d="M189,-323C189,-323 28,-323 28,-323 22,-323 16,-317 16,-311 16,-311 16,-299 16,-299 16,-293 22,-287 28,-287 28,-287 189,-287 189,-287 195,-287 201,-293 201,-299 201,-299 201,-311 201,-311 201,-317 195,-323 189,-323"/>
<text text-anchor="middle" x="108.5" y="-308" font-family="Helvetica,sans-Serif" font-size="10.00">pipeline/run_csc.py</text>
<text text-anchor="middle" x="108.5" y="-297" font-family="Helvetica,sans-Serif" font-size="10.00">(CSC SLURM + Apptainer wrapper)</text>
</g>
<!-- env_setup -->
<g id="node4" class="node">
<title>env_setup</title>
<path fill="white" stroke="#4b5563" d="M509,-476C509,-476 376,-476 376,-476 370,-476 364,-470 364,-464 364,-464 364,-452 364,-452 364,-446 370,-440 376,-440 376,-440 509,-440 509,-440 515,-440 521,-446 521,-452 521,-452 521,-464 521,-464 521,-470 515,-476 509,-476"/>
<text text-anchor="middle" x="442.5" y="-461" font-family="Helvetica,sans-Serif" font-size="10.00">CSC env setup</text>
<text text-anchor="middle" x="442.5" y="-450" font-family="Helvetica,sans-Serif" font-size="10.00">(TMPDIR, APPTAINER_* vars)</text>
</g>
<!-- run_csc&#45;&gt;env_setup -->
<g id="edge5" class="edge">
<title>run_csc&#45;&gt;env_setup</title>
<path fill="none" stroke="#4b5563" d="M172.22,-323.01C184.88,-327.92 197.74,-333.89 209,-341 252.31,-368.35 246.22,-397.13 291,-422 311.11,-433.17 334.61,-440.9 356.98,-446.23"/>
<polygon fill="#4b5563" stroke="#4b5563" points="356.51,-448.64 363.88,-447.81 357.61,-443.86 356.51,-448.64"/>
<text text-anchor="middle" x="250" y="-408.8" font-family="Helvetica,sans-Serif" font-size="9.00">prepares</text>
</g>
<!-- profile_gen -->
<g id="node5" class="node">
<title>profile_gen</title>
<path fill="white" stroke="#4b5563" d="M506.5,-404C506.5,-404 378.5,-404 378.5,-404 372.5,-404 366.5,-398 366.5,-392 366.5,-392 366.5,-380 366.5,-380 366.5,-374 372.5,-368 378.5,-368 378.5,-368 506.5,-368 506.5,-368 512.5,-368 518.5,-374 518.5,-380 518.5,-380 518.5,-392 518.5,-392 518.5,-398 512.5,-404 506.5,-404"/>
<text text-anchor="middle" x="442.5" y="-389" font-family="Helvetica,sans-Serif" font-size="10.00">write_profile()</text>
<text text-anchor="middle" x="442.5" y="-378" font-family="Helvetica,sans-Serif" font-size="10.00">(generates csc/config.yaml)</text>
</g>
<!-- run_csc&#45;&gt;profile_gen -->
<g id="edge6" class="edge">
<title>run_csc&#45;&gt;profile_gen</title>
<path fill="none" stroke="#4b5563" d="M201.17,-293.06C223.9,-292.42 248.03,-293.75 270,-299 322.27,-311.5 376.62,-342.68 409.76,-364.11"/>
<polygon fill="#4b5563" stroke="#4b5563" points="408.5,-366.21 415.7,-367.99 411.18,-362.11 408.5,-366.21"/>
<text text-anchor="middle" x="250" y="-301.8" font-family="Helvetica,sans-Serif" font-size="9.00">creates</text>
</g>
<!-- profile_csc -->
<g id="node8" class="node">
<title>profile_csc</title>
<path fill="white" stroke="#4b5563" d="M874.5,-494C874.5,-494 692.5,-494 692.5,-494 686.5,-494 680.5,-488 680.5,-482 680.5,-482 680.5,-470 680.5,-470 680.5,-464 686.5,-458 692.5,-458 692.5,-458 874.5,-458 874.5,-458 880.5,-458 886.5,-464 886.5,-470 886.5,-470 886.5,-482 886.5,-482 886.5,-488 880.5,-494 874.5,-494"/>
<text text-anchor="middle" x="783.5" y="-479" font-family="Helvetica,sans-Serif" font-size="10.00">pipeline/config/profiles/csc/config.yaml</text>
<text text-anchor="middle" x="783.5" y="-468" font-family="Helvetica,sans-Serif" font-size="10.00">(CSC profile; auto&#45;overwritten)</text>
</g>
<!-- run_csc&#45;&gt;profile_csc -->
<g id="edge9" class="edge">
<title>run_csc&#45;&gt;profile_csc</title>
<path fill="none" stroke="#4b5563" d="M185.17,-323.12C194.08,-327.78 202.35,-333.64 209,-341 234.79,-369.57 218.3,-388.34 230,-425 252.63,-495.92 229.52,-539.02 291,-581 346.61,-618.97 531.19,-605.26 594,-581 636.56,-564.56 630.49,-534.8 670,-512 680.39,-506 691.91,-500.86 703.5,-496.51"/>
<polygon fill="#4b5563" stroke="#4b5563" points="704.58,-498.72 710.32,-494.03 702.91,-494.12 704.58,-498.72"/>
<text text-anchor="middle" x="442.5" y="-606.8" font-family="Helvetica,sans-Serif" font-size="9.00">&#45;&#45;profile</text>
</g>
<!-- run_csc&#45;&gt;snakemake -->
<g id="edge8" class="edge">
<title>run_csc&#45;&gt;snakemake</title>
<path fill="none" stroke="#4b5563" d="M125.66,-286.65C146.95,-263.97 186.79,-226.49 230,-211 401.99,-149.34 914.66,-73.51 1052,-194 1105.91,-241.3 1031.81,-295.28 1073,-354 1077.88,-360.95 1084.52,-366.66 1091.76,-371.31"/>
<polygon fill="#4b5563" stroke="#4b5563" points="1090.7,-373.52 1097.97,-374.97 1093.19,-369.3 1090.7,-373.52"/>
<text text-anchor="middle" x="632" y="-139.8" font-family="Helvetica,sans-Serif" font-size="9.00">invokes</text>
</g>
<!-- container_image -->
<g id="node11" class="node">
<title>container_image</title>
<path fill="white" stroke="#4b5563" d="M1466,-335.5C1466,-335.5 1349,-335.5 1349,-335.5 1343,-335.5 1337,-329.5 1337,-323.5 1337,-323.5 1337,-306.5 1337,-306.5 1337,-300.5 1343,-294.5 1349,-294.5 1349,-294.5 1466,-294.5 1466,-294.5 1472,-294.5 1478,-300.5 1478,-306.5 1478,-306.5 1478,-323.5 1478,-323.5 1478,-329.5 1472,-335.5 1466,-335.5"/>
<text text-anchor="middle" x="1407.5" y="-323.5" font-family="Helvetica,sans-Serif" font-size="10.00">Container image</text>
<text text-anchor="middle" x="1407.5" y="-312.5" font-family="Helvetica,sans-Serif" font-size="10.00">(.sif or docker://...)</text>
<text text-anchor="middle" x="1407.5" y="-301.5" font-family="Helvetica,sans-Serif" font-size="10.00">used by Snakemake rules</text>
</g>
<!-- run_csc&#45;&gt;container_image -->
<g id="edge19" class="edge">
<title>run_csc&#45;&gt;container_image</title>
<path fill="none" stroke="#4b5563" d="M123.03,-286.75C150.54,-251 216.71,-171.59 291,-130 351.29,-96.25 372.4,-91 441.5,-91 441.5,-91 441.5,-91 1144.5,-91 1264.6,-91 1357.41,-228.66 1391.91,-288.15"/>
<polygon fill="#4b5563" stroke="#4b5563" points="1389.85,-289.47 1395.45,-294.33 1394.1,-287.04 1389.85,-289.47"/>
<text text-anchor="middle" x="783.5" y="-93.8" font-family="Helvetica,sans-Serif" font-size="9.00">&#45;&#45;sif &#45;&gt; container_image</text>
</g>
<!-- run_csc&#45;&gt;snakefile -->
<g id="edge10" class="edge">
<title>run_csc&#45;&gt;snakefile</title>
<path fill="none" stroke="#4b5563" d="M118,-286.83C150.09,-221.17 270.87,0 441.5,0 441.5,0 441.5,0 1408.5,0 1566.22,0 1662.41,-215.36 1690.99,-289.94"/>
<polygon fill="#4b5563" stroke="#4b5563" points="1688.78,-291.02 1693.55,-296.7 1693.37,-289.29 1688.78,-291.02"/>
<text text-anchor="middle" x="985" y="-2.8" font-family="Helvetica,sans-Serif" font-size="9.00">&#45;&#45;snakefile workflow/Snakefile</text>
</g>
<!-- run_utils&#45;&gt;snakemake -->
<g id="edge11" class="edge">
<title>run_utils&#45;&gt;snakemake</title>
<path fill="none" stroke="#4b5563" d="M546.92,-511.91C563.12,-507.21 579.34,-501.33 594,-494 633.25,-474.39 629.41,-447.65 670,-431 813.33,-372.19 1001.21,-377.68 1090.73,-384.72"/>
<polygon fill="#4b5563" stroke="#4b5563" points="1090.61,-387.17 1097.78,-385.3 1091.01,-382.29 1090.61,-387.17"/>
<text text-anchor="middle" x="783.5" y="-433.8" font-family="Helvetica,sans-Serif" font-size="9.00">batch/aggregation runs</text>
</g>
<!-- profile_gen&#45;&gt;profile_csc -->
<g id="edge7" class="edge">
<title>profile_gen&#45;&gt;profile_csc</title>
<path fill="none" stroke="#4b5563" d="M518.68,-403.29C542.8,-409.03 569.58,-415.58 594,-422 634.28,-432.58 679.11,-445.38 714.95,-455.86"/>
<polygon fill="#4b5563" stroke="#4b5563" points="714.58,-458.31 721.99,-457.93 715.96,-453.61 714.58,-458.31"/>
<text text-anchor="middle" x="632" y="-438.8" font-family="Helvetica,sans-Serif" font-size="9.00">writes</text>
</g>
<!-- general_cfg -->
<g id="node6" class="node">
<title>general_cfg</title>
<path fill="white" stroke="#4b5563" d="M872.5,-638C872.5,-638 694.5,-638 694.5,-638 688.5,-638 682.5,-632 682.5,-626 682.5,-626 682.5,-614 682.5,-614 682.5,-608 688.5,-602 694.5,-602 694.5,-602 872.5,-602 872.5,-602 878.5,-602 884.5,-608 884.5,-614 884.5,-614 884.5,-626 884.5,-626 884.5,-632 878.5,-638 872.5,-638"/>
<text text-anchor="middle" x="783.5" y="-623" font-family="Helvetica,sans-Serif" font-size="10.00">pipeline/config/config.yaml</text>
<text text-anchor="middle" x="783.5" y="-612" font-family="Helvetica,sans-Serif" font-size="10.00">(general defaults loaded by Snakefile)</text>
</g>
<!-- general_cfg&#45;&gt;snakefile -->
<g id="edge16" class="edge">
<title>general_cfg&#45;&gt;snakefile</title>
<path fill="none" stroke="#4b5563" d="M884.78,-611.4C1036.54,-595.17 1330.44,-550.94 1553,-439 1603.89,-413.4 1652.25,-366.84 1678.84,-338.63"/>
<polygon fill="#4b5563" stroke="#4b5563" points="1680.88,-340.04 1683.86,-333.25 1677.29,-336.7 1680.88,-340.04"/>
<text text-anchor="middle" x="1271.5" y="-551.8" font-family="Helvetica,sans-Serif" font-size="9.00">configfile</text>
</g>
<!-- profile_tyks&#45;&gt;snakemake -->
<g id="edge12" class="edge">
<title>profile_tyks&#45;&gt;snakemake</title>
<path fill="none" stroke="#4b5563" d="M889.13,-535.28C940.67,-525.74 1002.26,-509.27 1052,-481 1081.75,-464.09 1108.37,-434.73 1124.91,-413.93"/>
<polygon fill="#4b5563" stroke="#4b5563" points="1126.93,-415.33 1129.31,-408.31 1123.07,-412.32 1126.93,-415.33"/>
<text text-anchor="middle" x="985" y="-531.8" font-family="Helvetica,sans-Serif" font-size="9.00">execution settings</text>
</g>
<!-- profile_csc&#45;&gt;snakemake -->
<g id="edge13" class="edge">
<title>profile_csc&#45;&gt;snakemake</title>
<path fill="none" stroke="#4b5563" d="M886.79,-467.14C937.33,-460.96 998.74,-450.72 1052,-434 1069.94,-428.37 1088.79,-419.7 1104.62,-411.53"/>
<polygon fill="#4b5563" stroke="#4b5563" points="1106.14,-413.5 1111.2,-408.08 1103.86,-409.16 1106.14,-413.5"/>
<text text-anchor="middle" x="985" y="-464.8" font-family="Helvetica,sans-Serif" font-size="9.00">execution settings</text>
</g>
<!-- slurm -->
<g id="node10" class="node">
<title>slurm</title>
<path fill="white" stroke="#4b5563" d="M1443.5,-408C1443.5,-408 1371.5,-408 1371.5,-408 1365.5,-408 1359.5,-402 1359.5,-396 1359.5,-396 1359.5,-384 1359.5,-384 1359.5,-378 1365.5,-372 1371.5,-372 1371.5,-372 1443.5,-372 1443.5,-372 1449.5,-372 1455.5,-378 1455.5,-384 1455.5,-384 1455.5,-396 1455.5,-396 1455.5,-402 1449.5,-408 1443.5,-408"/>
<text text-anchor="middle" x="1407.5" y="-393" font-family="Helvetica,sans-Serif" font-size="10.00">SLURM executor</text>
<text text-anchor="middle" x="1407.5" y="-382" font-family="Helvetica,sans-Serif" font-size="10.00">(CSC only)</text>
</g>
<!-- snakemake&#45;&gt;slurm -->
<g id="edge14" class="edge">
<title>snakemake&#45;&gt;slurm</title>
<path fill="none" stroke="#4b5563" d="M1189.24,-390C1234.28,-390 1303.82,-390 1352.04,-390"/>
<polygon fill="#4b5563" stroke="#4b5563" points="1352.29,-392.45 1359.29,-390 1352.29,-387.55 1352.29,-392.45"/>
<text text-anchor="middle" x="1271.5" y="-392.8" font-family="Helvetica,sans-Serif" font-size="9.00">executor=slurm</text>
</g>
<!-- snakemake&#45;&gt;snakefile -->
<g id="edge15" class="edge">
<title>snakemake&#45;&gt;snakefile</title>
<path fill="none" stroke="#4b5563" d="M1189.08,-404.28C1254.92,-423.22 1381.6,-451.46 1486,-426 1556.05,-408.91 1628.74,-364.55 1668.79,-337.37"/>
<polygon fill="#4b5563" stroke="#4b5563" points="1670.54,-339.13 1674.93,-333.16 1667.77,-335.09 1670.54,-339.13"/>
<text text-anchor="middle" x="1407.5" y="-438.8" font-family="Helvetica,sans-Serif" font-size="9.00">executes workflow</text>
</g>
<!-- container_image&#45;&gt;snakefile -->
<g id="edge17" class="edge">
<title>container_image&#45;&gt;snakefile</title>
<path fill="none" stroke="#4b5563" d="M1478.32,-315C1507.26,-315 1541.73,-315 1574.76,-315"/>
<polygon fill="#4b5563" stroke="#4b5563" points="1574.79,-317.45 1581.79,-315 1574.79,-312.55 1574.79,-317.45"/>
<text text-anchor="middle" x="1530" y="-317.8" font-family="Helvetica,sans-Serif" font-size="9.00">container:</text>
</g>
<!-- dockerfile -->
<g id="node12" class="node">
<title>dockerfile</title>
<path fill="white" stroke="#4b5563" d="M1194,-336C1194,-336 1093,-336 1093,-336 1087,-336 1081,-330 1081,-324 1081,-324 1081,-312 1081,-312 1081,-306 1087,-300 1093,-300 1093,-300 1194,-300 1194,-300 1200,-300 1206,-306 1206,-312 1206,-312 1206,-324 1206,-324 1206,-330 1200,-336 1194,-336"/>
<text text-anchor="middle" x="1143.5" y="-321" font-family="Helvetica,sans-Serif" font-size="10.00">pipeline/Dockerfile</text>
<text text-anchor="middle" x="1143.5" y="-310" font-family="Helvetica,sans-Serif" font-size="10.00">(builds default image)</text>
</g>
<!-- dockerfile&#45;&gt;container_image -->
<g id="edge18" class="edge">
<title>dockerfile&#45;&gt;container_image</title>
<path fill="none" stroke="#4b5563" d="M1206.26,-317.29C1243.15,-316.87 1290.31,-316.33 1329.6,-315.88"/>
<polygon fill="#4b5563" stroke="#4b5563" points="1329.87,-318.33 1336.84,-315.8 1329.81,-313.43 1329.87,-318.33"/>
<text text-anchor="middle" x="1271.5" y="-318.8" font-family="Helvetica,sans-Serif" font-size="9.00">build source</text>
</g>
<!-- rules -->
<g id="node14" class="node">
<title>rules</title>
<path fill="white" stroke="#4b5563" d="M2101,-337.5C2101,-337.5 1924,-337.5 1924,-337.5 1918,-337.5 1912,-331.5 1912,-325.5 1912,-325.5 1912,-308.5 1912,-308.5 1912,-302.5 1918,-296.5 1924,-296.5 1924,-296.5 2101,-296.5 2101,-296.5 2107,-296.5 2113,-302.5 2113,-308.5 2113,-308.5 2113,-325.5 2113,-325.5 2113,-331.5 2107,-337.5 2101,-337.5"/>
<text text-anchor="middle" x="2012.5" y="-325.5" font-family="Helvetica,sans-Serif" font-size="10.00">pipeline/workflow/rules/*.smk</text>
<text text-anchor="middle" x="2012.5" y="-314.5" font-family="Helvetica,sans-Serif" font-size="10.00">(hsf_segmentation, data_processing,</text>
<text text-anchor="middle" x="2012.5" y="-303.5" font-family="Helvetica,sans-Serif" font-size="10.00">mesh_generation, feature_extraction)</text>
</g>
<!-- snakefile&#45;&gt;rules -->
<g id="edge20" class="edge">
<title>snakefile&#45;&gt;rules</title>
<path fill="none" stroke="#4b5563" d="M1820.33,-315.76C1848.06,-315.94 1877.44,-316.13 1904.63,-316.31"/>
<polygon fill="#4b5563" stroke="#4b5563" points="1904.85,-318.76 1911.87,-316.36 1904.89,-313.86 1904.85,-318.76"/>
<text text-anchor="middle" x="1866" y="-318.8" font-family="Helvetica,sans-Serif" font-size="9.00">include</text>
</g>
<!-- scripts -->
<g id="node15" class="node">
<title>scripts</title>
<path fill="white" stroke="#4b5563" d="M2454,-337.5C2454,-337.5 2275,-337.5 2275,-337.5 2269,-337.5 2263,-331.5 2263,-325.5 2263,-325.5 2263,-308.5 2263,-308.5 2263,-302.5 2269,-296.5 2275,-296.5 2275,-296.5 2454,-296.5 2454,-296.5 2460,-296.5 2466,-302.5 2466,-308.5 2466,-308.5 2466,-325.5 2466,-325.5 2466,-331.5 2460,-337.5 2454,-337.5"/>
<text text-anchor="middle" x="2364.5" y="-325.5" font-family="Helvetica,sans-Serif" font-size="10.00">pipeline/workflow/scripts/*.py</text>
<text text-anchor="middle" x="2364.5" y="-314.5" font-family="Helvetica,sans-Serif" font-size="10.00">(hsf_wrapper, nii_parse, voxelToMesh,</text>
<text text-anchor="middle" x="2364.5" y="-303.5" font-family="Helvetica,sans-Serif" font-size="10.00">feature_extraction, cli_aggregate)</text>
</g>
<!-- rules&#45;&gt;scripts -->
<g id="edge21" class="edge">
<title>rules&#45;&gt;scripts</title>
<path fill="none" stroke="#4b5563" d="M2113.33,-317C2157.82,-317 2210.32,-317 2255.71,-317"/>
<polygon fill="#4b5563" stroke="#4b5563" points="2255.93,-319.45 2262.93,-317 2255.93,-314.55 2255.93,-319.45"/>
<text text-anchor="middle" x="2188" y="-319.8" font-family="Helvetica,sans-Serif" font-size="9.00">shell: python scripts</text>
</g>
<!-- derivatives -->
<g id="node17" class="node">
<title>derivatives</title>
<path fill="white" stroke="#4b5563" d="M2454,-225C2454,-225 2275,-225 2275,-225 2269,-225 2263,-219 2263,-213 2263,-213 2263,-201 2263,-201 2263,-195 2269,-189 2275,-189 2275,-189 2454,-189 2454,-189 2460,-189 2466,-195 2466,-201 2466,-201 2466,-213 2466,-213 2466,-219 2460,-225 2454,-225"/>
<text text-anchor="middle" x="2364.5" y="-210" font-family="Helvetica,sans-Serif" font-size="10.00">Derivatives + summary outputs</text>
<text text-anchor="middle" x="2364.5" y="-199" font-family="Helvetica,sans-Serif" font-size="10.00">(sub&#45;*/... + summary/all_features.csv)</text>
</g>
<!-- rules&#45;&gt;derivatives -->
<g id="edge24" class="edge">
<title>rules&#45;&gt;derivatives</title>
<path fill="none" stroke="#4b5563" d="M2078.92,-296.44C2142.01,-276.61 2236.9,-246.79 2299.51,-227.11"/>
<polygon fill="#4b5563" stroke="#4b5563" points="2300.28,-229.44 2306.22,-225 2298.81,-224.76 2300.28,-229.44"/>
<text text-anchor="middle" x="2188" y="-277.8" font-family="Helvetica,sans-Serif" font-size="9.00">final targets</text>
</g>
<!-- scripts&#45;&gt;derivatives -->
<g id="edge23" class="edge">
<title>scripts&#45;&gt;derivatives</title>
<path fill="none" stroke="#4b5563" d="M2364.5,-296.18C2364.5,-278 2364.5,-251.58 2364.5,-232.21"/>
<polygon fill="#4b5563" stroke="#4b5563" points="2366.95,-232.16 2364.5,-225.16 2362.05,-232.16 2366.95,-232.16"/>
<text text-anchor="middle" x="2356.5" y="-258.55" font-family="Helvetica,sans-Serif" font-size="9.00">write outputs</text>
</g>
<!-- bids -->
<g id="node16" class="node">
<title>bids</title>
<path fill="white" stroke="#4b5563" d="M2435.5,-153C2435.5,-153 2293.5,-153 2293.5,-153 2287.5,-153 2281.5,-147 2281.5,-141 2281.5,-141 2281.5,-129 2281.5,-129 2281.5,-123 2287.5,-117 2293.5,-117 2293.5,-117 2435.5,-117 2435.5,-117 2441.5,-117 2447.5,-123 2447.5,-129 2447.5,-129 2447.5,-141 2447.5,-141 2447.5,-147 2441.5,-153 2435.5,-153"/>
<text text-anchor="middle" x="2364.5" y="-138" font-family="Helvetica,sans-Serif" font-size="10.00">BIDS input dataset</text>
<text text-anchor="middle" x="2364.5" y="-127" font-family="Helvetica,sans-Serif" font-size="10.00">(sub&#45;*/ses&#45;*/anat/*_T1w.nii.gz)</text>
</g>
<!-- bids&#45;&gt;snakefile -->
<g id="edge22" class="edge">
<title>bids&#45;&gt;snakefile</title>
<path fill="none" stroke="#4b5563" d="M2297.01,-153.09C2172.35,-187.01 1904.42,-259.92 1774.96,-295.15"/>
<polygon fill="#4b5563" stroke="#4b5563" points="1774.26,-292.8 1768.15,-297 1775.55,-297.53 1774.26,-292.8"/>
<text text-anchor="middle" x="2012.5" y="-259.8" font-family="Helvetica,sans-Serif" font-size="9.00">discover subjects/sessions</text>
</g>
</g>
</svg>
